/* XPM */
static char *cloud[] = {
"34 30 4 1",
"  c None",
". c #FFFFFF",
"o c #C0C0C0",
"X c #A0A0A0",
"                                  ",
"                                  ",
"                                  ",
"                                  ",
"                                  ",
"                                  ",
"                                  ",
"                                  ",
"                                  ",
"                                  ",
"                                  ",
"            .......               ",
"         ..............           ",
"       ..................         ",
"     .....oooooooooooo.....       ",
"   .....ooXXXXXXXXXXXXooo....     ",
"  ......ooXXXXXXXXXXXXXXoo....    ",
"  .......ooXXXXXXXXXXXXXooo....   ",
"   .......ooXXXXXXXXXXXXoooo...   ",
"     .......ooXXXXXXXXXoooo....   ",
"      .......ooooooooooooo.....   ",
"      .........................   ",
"        ........................  ",
"         ......................   ",
"          ....................    ",
"           ..................     ",
"             ...............      ",
"              ............        ",
"                                  ",
"                                  "
};
